<svg id="Layer_1" data-name="Layer 1" xmlns="http://www.w3.org/2000/svg" viewBox="0 0 512 512"><title>dollar-coins-glyph</title><path d="M256,303.07c-120.45,0-219.51-53.66-235-123.07a81.57,81.57,0,0,0-2.42,19c0,78.45,106.19,142,237.46,142s237.49-63.55,237.49-142a86.94,86.94,0,0,0-2.42-19C475.52,249.42,376.44,303.07,256,303.07Zm0,0" fill="#212121"/><path d="M256,360.08c-120.45,0-219.51-53.66-235-123.17a81.91,81.91,0,0,0-2.42,19c0,78.47,106.19,142.12,237.46,142.12s237.49-63.65,237.49-142.12a87.34,87.34,0,0,0-2.42-19C475.52,306.42,376.44,360.08,256,360.08Zm0,0" fill="#212121"/><path d="M256,417c-120.45,0-219.51-53.63-235-123.07a81.79,81.79,0,0,0-2.42,19C18.53,391.42,124.72,455,256,455s237.49-63.55,237.49-142.1a86.48,86.48,0,0,0-2.42-19C475.52,363.35,376.44,417,256,417Zm0,0" fill="#212121"/><path d="M256,474c-120.45,0-219.51-53.66-235-123.07a80.41,80.41,0,0,0-2.42,18.93C18.53,448.35,124.72,512,256,512s237.49-63.65,237.49-142.12a85.69,85.69,0,0,0-2.42-18.93C475.52,420.36,376.44,474,256,474Zm0,0" fill="#212121"/><path d="M256,0C124.72,0,18.53,63.55,18.53,142S124.72,284,256,284s237.49-63.55,237.49-142S387.26,0,256,0Zm51.56,220.12c-8.86,8.54-20.55,14.23-35.42,17.08v29.72H241.45V238.14c-23.72-2.85-41.11-11.07-51.54-24.67L206,193.87c13.28,14.23,29.41,21.19,48.38,21.19,21.5,0,37.95-12,37.95-32.57q0-15.18-16.13-23.71c-3.48-1.58-13.6-5.38-31-11.07-15.49-5.06-26.56-10.75-33.52-16.76-10.12-9.17-15.18-21.5-15.18-37.31,0-11.7,4.11-22.14,12.65-31.31Q222,49.52,241.45,45.25V17.11h30.67V44.3c14.23,2.21,28.14,8.54,41.74,18.66L298.69,81.3c-13-9.8-26.56-14.86-40.16-14.86-20.55,0-30.67,9.49-30.67,28.78,0,11.07,10.75,19.92,31.94,26.56q34.63,10.91,45.54,19c11.07,8.54,16.76,22.45,16.76,41.11C322.09,197.67,317.34,210.31,307.54,220.12Z" fill="#212121"/></svg>