<svg id="Layer_1" data-name="Layer 1" xmlns="http://www.w3.org/2000/svg" viewBox="0 0 512 512"><title>team-building</title><g id="team-building"><g id="label"><path d="M256,512C114.84,512,0,397.16,0,256S114.84,0,256,0,512,114.84,512,256,397.16,512,256,512Zm0-490.54C126.67,21.46,21.46,126.67,21.46,256S126.67,490.54,256,490.54,490.54,385.33,490.54,256,385.32,21.46,256,21.46Z" fill="#34495e"/></g><path id="team-building-2" data-name="team-building" d="M206.53,170.11A49.47,49.47,0,1,1,256,219.58,49.48,49.48,0,0,1,206.53,170.11Zm75.94,57.41L256,262.81l-26.46-35.29a80.56,80.56,0,0,0-52.94,76v87.84H335.41V303.52A80.57,80.57,0,0,0,282.47,227.53Zm-21.68,4.71a12.85,12.85,0,0,0,3.09-9c-2.52-.24-5.07-.37-7.65-.37s-5,.13-7.46.36c0,0-.39,5.34,2.92,9.13C251.69,232.31,257.77,232.43,260.79,232.24Zm-4.65,25.29,8.62-10-4.09-13.79h-9.07l-4.42,13.79Zm91-16a9.69,9.69,0,0,0,2.32-6.79c-1.89-.18-3.8-.27-5.74-.27s-3.76.09-5.6.27a10.34,10.34,0,0,0,2.2,6.84S344.91,241.7,347.18,241.56Zm-3.49,19,6.48-7.53-3.07-10.35h-6.81L337,253Zm-.11-28.46a37.12,37.12,0,1,0-37.12-37.12A37.12,37.12,0,0,0,343.58,232.06Zm-155.32,6L168.41,264.5,148.55,238a60.45,60.45,0,0,0-39.71,57v96.32h60.37V303.52A88.26,88.26,0,0,1,195,241,60.29,60.29,0,0,0,188.27,238Zm-19.85-6a37.12,37.12,0,1,0-37.12-37.12A37.13,37.13,0,0,0,168.42,232.06Zm3.59,9.49a9.69,9.69,0,0,0,2.32-6.79q-2.84-.27-5.73-.27t-5.6.26a10.4,10.4,0,0,0,2.19,6.86S169.74,241.7,172,241.56ZM363.45,238,343.58,264.5,323.72,238a60,60,0,0,0-6.74,3,88.26,88.26,0,0,1,25.8,62.55v39.7c.26,0-.26,48.14,0,48.14h60.26l.11-96.32A60.46,60.46,0,0,0,363.45,238ZM168.52,260.53,175,253l-3.07-10.35h-6.81L161.81,253Z" fill="#34495e"/></g></svg>