<svg id="Layer_1" data-name="Layer 1" xmlns="http://www.w3.org/2000/svg" viewBox="0 0 512 512"><defs><style>.cls-1{fill:#141f38;}</style></defs><title>hour-glass-glyph</title><path class="cls-1" d="M396.8,107.52V76.16A32,32,0,0,0,422.4,44.8V32A32,32,0,0,0,396.8.64V0H115.2V.64A32,32,0,0,0,89.6,32V44.8a32,32,0,0,0,25.6,31.36v31.36c0,88.22,60.69,130.11,102.37,148.48-41.7,18.35-102.37,60.26-102.37,148.48v31.36A32,32,0,0,0,89.6,467.2V480a32,32,0,0,0,25.6,31.36V512H396.8v-.64A32,32,0,0,0,422.4,480V467.2a32,32,0,0,0-25.6-31.36V404.48c0-88.22-60.68-130.13-102.37-148.48C336.11,237.63,396.8,195.74,396.8,107.52ZM308.89,435.2H203.11l29.61-18.84a43.35,43.35,0,0,1,46.55,0ZM256,332.8a12.8,12.8,0,1,1-12.8,12.8A12.8,12.8,0,0,1,256,332.8Zm-12.8-25.6A12.8,12.8,0,1,1,256,320,12.8,12.8,0,0,1,243.2,307.2ZM278.38,235A186.3,186.3,0,0,1,256,242.5,186.56,186.56,0,0,1,233.6,235C214,227,189.13,213.46,170.14,191.23c23.88-7.68,54.12-12,85.86-12s62,4.34,85.86,12C322.87,213.46,298,227,278.38,235Z"/></svg>